<?xml version="1.0" encoding="UTF-8"?>
<svg id="Layer_1" xmlns="http://www.w3.org/2000/svg" version="1.1" viewBox="0 0 302 392">
  <!-- Generator: Adobe Illustrator 29.3.1, SVG Export Plug-In . SVG Version: 2.1.0 Build 151)  -->
  <defs>
    <style>
      .st0 {
        font-family: TimesNewRomanPS-ItalicMT, 'Times New Roman';
        font-size: 33.4px;
      }

      .st0, .st1 {
        font-style: italic;
      }

      .st2 {
        fill: #231f20;
      }

      .st3 {
        fill: #fdd835;
      }

      .st1 {
        font-family: TimesNewRomanPS-BoldItalicMT, 'Times New Roman';
        font-size: 46px;
        font-weight: 700;
      }

      .st4 {
        fill: #ffee58;
      }

      .st5 {
        fill: #f4b400;
      }
    </style>
  </defs>
  <path class="st2" d="M269.9,343.1H22.4V46h247.6v297.2ZM29,336.5h234.3V52.6H29v283.9Z"/>
  <text class="st1" transform="translate(38.5 98.6)"><tspan x="0" y="0">Resume</tspan></text>
  <path d="M45,140.9c-2.8,0-5.1-2.3-5.1-5.1s2.3-5.1,5.1-5.1,5.1,2.3,5.1,5.1-2.3,5.1-5.1,5.1ZM45,133.1c-1.4,0-2.6,1.2-2.6,2.6s1.2,2.6,2.6,2.6,2.6-1.2,2.6-2.6-1.2-2.6-2.6-2.6Z"/>
  <path d="M45,156.3c-2.8,0-5.1-2.3-5.1-5.1s2.3-5.1,5.1-5.1,5.1,2.3,5.1,5.1-2.3,5.1-5.1,5.1ZM45,148.6c-1.4,0-2.6,1.2-2.6,2.6s1.2,2.6,2.6,2.6,2.6-1.2,2.6-2.6-1.2-2.6-2.6-2.6Z"/>
  <path d="M60.4,156.3c-2.8,0-5.1-2.3-5.1-5.1s2.3-5.1,5.1-5.1,5.1,2.3,5.1,5.1-2.3,5.1-5.1,5.1ZM60.4,148.6c-1.4,0-2.6,1.2-2.6,2.6s1.2,2.6,2.6,2.6,2.6-1.2,2.6-2.6-1.2-2.6-2.6-2.6Z"/>
  <path d="M61.7,147.3h-2.6v-3.9c0-3.4,0-5-.8-5.7-.7-.7-2.3-.8-5.7-.8v-2.6c3.9,0,6,0,7.5,1.5,1.5,1.5,1.5,3.6,1.5,7.5v3.9Z"/>
  <path d="M56.5,140.9c-.3,0-.7-.1-.9-.4l-3.8-3.8c-.5-.5-.5-1.4,0-2l3.8-3.8c.5-.5,1.3-.5,1.8,0,.5.5.5,1.3,0,1.8l-3,3,3,3c.5.5.5,1.3,0,1.8-.3.3-.6.4-.9.4Z"/>
  <path d="M45,148.6c-.7,0-1.3-.6-1.3-1.3v-7.7c0-.7.6-1.3,1.3-1.3s1.3.6,1.3,1.3v7.7c0,.7-.6,1.3-1.3,1.3Z"/>
  <text class="st0" transform="translate(76.9 153.7)"><tspan x="0" y="0">Pull Request</tspan></text>
  <path d="M45,182.5c-2.8,0-5.1-2.3-5.1-5.1s2.3-5.1,5.1-5.1,5.1,2.3,5.1,5.1-2.3,5.1-5.1,5.1ZM45,174.8c-1.4,0-2.6,1.2-2.6,2.6s1.2,2.6,2.6,2.6,2.6-1.2,2.6-2.6-1.2-2.6-2.6-2.6Z"/>
  <path d="M45,198c-2.8,0-5.1-2.3-5.1-5.1s2.3-5.1,5.1-5.1,5.1,2.3,5.1,5.1-2.3,5.1-5.1,5.1ZM45,190.3c-1.4,0-2.6,1.2-2.6,2.6s1.2,2.6,2.6,2.6,2.6-1.2,2.6-2.6-1.2-2.6-2.6-2.6Z"/>
  <path d="M60.4,198c-2.8,0-5.1-2.3-5.1-5.1s2.3-5.1,5.1-5.1,5.1,2.3,5.1,5.1-2.3,5.1-5.1,5.1ZM60.4,190.3c-1.4,0-2.6,1.2-2.6,2.6s1.2,2.6,2.6,2.6,2.6-1.2,2.6-2.6-1.2-2.6-2.6-2.6Z"/>
  <path d="M61.7,189h-2.6v-3.9c0-3.4,0-5-.8-5.7-.7-.7-2.3-.8-5.7-.8v-2.6c3.9,0,6,0,7.5,1.5,1.5,1.5,1.5,3.6,1.5,7.5v3.9Z"/>
  <path d="M56.5,182.5c-.3,0-.7-.1-.9-.4l-3.8-3.8c-.5-.5-.5-1.4,0-2l3.8-3.8c.5-.5,1.3-.5,1.8,0,.5.5.5,1.3,0,1.8l-3,3,3,3c.5.5.5,1.3,0,1.8-.3.3-.6.4-.9.4Z"/>
  <path d="M45,190.3c-.7,0-1.3-.6-1.3-1.3v-7.7c0-.7.6-1.3,1.3-1.3s1.3.6,1.3,1.3v7.7c0,.7-.6,1.3-1.3,1.3Z"/>
  <text class="st0" transform="translate(76.9 195.4)"><tspan x="0" y="0">Code Review</tspan></text>
  <path d="M45,224.2c-2.8,0-5.1-2.3-5.1-5.1s2.3-5.1,5.1-5.1,5.1,2.3,5.1,5.1-2.3,5.1-5.1,5.1ZM45,216.5c-1.4,0-2.6,1.2-2.6,2.6s1.2,2.6,2.6,2.6,2.6-1.2,2.6-2.6-1.2-2.6-2.6-2.6Z"/>
  <path d="M45,239.7c-2.8,0-5.1-2.3-5.1-5.1s2.3-5.1,5.1-5.1,5.1,2.3,5.1,5.1-2.3,5.1-5.1,5.1ZM45,232c-1.4,0-2.6,1.2-2.6,2.6s1.2,2.6,2.6,2.6,2.6-1.2,2.6-2.6-1.2-2.6-2.6-2.6Z"/>
  <path d="M60.4,239.7c-2.8,0-5.1-2.3-5.1-5.1s2.3-5.1,5.1-5.1,5.1,2.3,5.1,5.1-2.3,5.1-5.1,5.1ZM60.4,232c-1.4,0-2.6,1.2-2.6,2.6s1.2,2.6,2.6,2.6,2.6-1.2,2.6-2.6-1.2-2.6-2.6-2.6Z"/>
  <path d="M61.7,230.7h-2.6v-3.9c0-3.4,0-5-.8-5.7-.7-.7-2.3-.8-5.7-.8v-2.6c3.9,0,6,0,7.5,1.5,1.5,1.5,1.5,3.6,1.5,7.5v3.9Z"/>
  <path d="M56.5,224.2c-.3,0-.7-.1-.9-.4l-3.8-3.8c-.5-.5-.5-1.4,0-2l3.8-3.8c.5-.5,1.3-.5,1.8,0,.5.5.5,1.3,0,1.8l-3,3,3,3c.5.5.5,1.3,0,1.8-.3.3-.6.4-.9.4Z"/>
  <path d="M45,232c-.7,0-1.3-.6-1.3-1.3v-7.7c0-.7.6-1.3,1.3-1.3s1.3.6,1.3,1.3v7.7c0,.7-.6,1.3-1.3,1.3Z"/>
  <text class="st0" transform="translate(76.9 237.1)"><tspan x="0" y="0">New Docs</tspan></text>
  <path d="M45,265.9c-2.8,0-5.1-2.3-5.1-5.1s2.3-5.1,5.1-5.1,5.1,2.3,5.1,5.1-2.3,5.1-5.1,5.1ZM45,258.2c-1.4,0-2.6,1.2-2.6,2.6s1.2,2.6,2.6,2.6,2.6-1.2,2.6-2.6-1.2-2.6-2.6-2.6Z"/>
  <path d="M45,281.4c-2.8,0-5.1-2.3-5.1-5.1s2.3-5.1,5.1-5.1,5.1,2.3,5.1,5.1-2.3,5.1-5.1,5.1ZM45,273.6c-1.4,0-2.6,1.2-2.6,2.6s1.2,2.6,2.6,2.6,2.6-1.2,2.6-2.6-1.2-2.6-2.6-2.6Z"/>
  <path d="M60.4,281.4c-2.8,0-5.1-2.3-5.1-5.1s2.3-5.1,5.1-5.1,5.1,2.3,5.1,5.1-2.3,5.1-5.1,5.1ZM60.4,273.6c-1.4,0-2.6,1.2-2.6,2.6s1.2,2.6,2.6,2.6,2.6-1.2,2.6-2.6-1.2-2.6-2.6-2.6Z"/>
  <path d="M61.7,272.3h-2.6v-3.9c0-3.4,0-5-.8-5.7-.7-.7-2.3-.8-5.7-.8v-2.6c3.9,0,6,0,7.5,1.5,1.5,1.5,1.5,3.6,1.5,7.5v3.9Z"/>
  <path d="M56.5,265.9c-.3,0-.7-.1-.9-.4l-3.8-3.8c-.5-.5-.5-1.4,0-2l3.8-3.8c.5-.5,1.3-.5,1.8,0,.5.5.5,1.3,0,1.8l-3,3,3,3c.5.5.5,1.3,0,1.8-.3.3-.6.4-.9.4Z"/>
  <path d="M45,273.6c-.7,0-1.3-.6-1.3-1.3v-7.7c0-.7.6-1.3,1.3-1.3s1.3.6,1.3,1.3v7.7c0,.7-.6,1.3-1.3,1.3Z"/>
  <text class="st0" transform="translate(76.9 278.8)"><tspan x="0" y="0">Bug Report</tspan></text>
  <path d="M45,307.6c-2.8,0-5.1-2.3-5.1-5.1s2.3-5.1,5.1-5.1,5.1,2.3,5.1,5.1-2.3,5.1-5.1,5.1ZM45,299.9c-1.4,0-2.6,1.2-2.6,2.6s1.2,2.6,2.6,2.6,2.6-1.2,2.6-2.6-1.2-2.6-2.6-2.6Z"/>
  <path d="M45,323c-2.8,0-5.1-2.3-5.1-5.1s2.3-5.1,5.1-5.1,5.1,2.3,5.1,5.1-2.3,5.1-5.1,5.1ZM45,315.3c-1.4,0-2.6,1.2-2.6,2.6s1.2,2.6,2.6,2.6,2.6-1.2,2.6-2.6-1.2-2.6-2.6-2.6Z"/>
  <path d="M60.4,323c-2.8,0-5.1-2.3-5.1-5.1s2.3-5.1,5.1-5.1,5.1,2.3,5.1,5.1-2.3,5.1-5.1,5.1ZM60.4,315.3c-1.4,0-2.6,1.2-2.6,2.6s1.2,2.6,2.6,2.6,2.6-1.2,2.6-2.6-1.2-2.6-2.6-2.6Z"/>
  <path d="M61.7,314h-2.6v-3.9c0-3.4,0-5-.8-5.7-.7-.7-2.3-.8-5.7-.8v-2.6c3.9,0,6,0,7.5,1.5,1.5,1.5,1.5,3.6,1.5,7.5v3.9Z"/>
  <path d="M56.5,307.6c-.3,0-.7-.1-.9-.4l-3.8-3.8c-.5-.5-.5-1.4,0-2l3.8-3.8c.5-.5,1.3-.5,1.8,0,.5.5.5,1.3,0,1.8l-3,3,3,3c.5.5.5,1.3,0,1.8-.3.3-.6.4-.9.4Z"/>
  <path d="M45,315.3c-.7,0-1.3-.6-1.3-1.3v-7.7c0-.7.6-1.3,1.3-1.3s1.3.6,1.3,1.3v7.7c0,.7-.6,1.3-1.3,1.3Z"/>
  <text class="st0" transform="translate(76.9 320.5)"><tspan x="0" y="0">Proposal</tspan></text>
  <g>
    <path class="st3" d="M294.6,66.7l-9.6-3.1c-6.2-2-9.8-7-11.5-13.3l-4.2-20.6c-.1-.4-.4-1-1.2-1s-1.1.5-1.2,1l-4.2,20.6c-1.7,6.3-5.3,11.2-11.5,13.3l-9.6,3.1c-1.4.4-1.4,2.4,0,2.8l9.7,3.3c6.1,2,9.7,7,11.4,13.2l4.2,20.4c.1.4.3,1.1,1.2,1.1s1.1-.7,1.2-1.1l4.2-20.4c1.7-6.2,5.3-11.2,11.4-13.2l9.7-3.3c1.3-.5,1.3-2.4,0-2.8h0Z"/>
    <path class="st4" d="M295.5,67.5c-.2-.4-.4-.7-.9-.9l-9.6-3.1c-6.2-2-9.8-7-11.5-13.3l-4.2-20.6c0-.2-.3-.7-.5-.8l1.4,20.7c1,9.5,1.9,13.9,9.4,15.2,6.5,1.1,14,2.4,16,2.8h0Z"/>
    <path class="st5" d="M295.5,68.6l-16.7,3.8c-5.9,1.5-9.1,4.9-9.1,13.8l-1.6,21.4c.6,0,1-.4,1.2-1.1l4.2-20.4c1.7-6.2,5.3-11.2,11.4-13.2l9.7-3.3c.5-.2.7-.5.9-.9h0Z"/>
    <g>
      <path class="st3" d="M239.5,84.6c-5.8-1.9-6.3-4-7.2-7.7l-2.4-8.5c-.1-.5-1.6-.5-1.7,0l-1.6,7.8c-1,3.6-3,6.5-6.6,7.6l-5.6,2.4c-.8.3-.8,1.4,0,1.6l5.7,2c3.5,1.2,5.6,4,6.6,7.6l1.6,7.5c.2.5,1.6.5,1.7,0l1.9-7.4c1-3.6,2.5-6.5,7.3-7.7l5.3-2c.8-.3.8-1.4,0-1.6l-4.8-1.8h0Z"/>
      <path class="st4" d="M230.2,76.8c.6,5.4.9,6.9,5.3,8.1l9.2,1.8c0-.1-.2-.2-.4-.3l-4.8-1.8c-5.1-1.7-6.4-3.9-7.4-8.3-.9-4.4-2-7.3-2-7.3-.4-.9-.9-.9-.9-.9l1,8.7h0Z"/>
      <path class="st5" d="M230.4,95.8c0-5.1,2.8-7.7,7.2-7.7l6.9-.3s-.4.5-1.1.7l-4.5,1.5c-3.8,1.5-5.6,2.3-6.8,7.6,0,0-1.5,6.1-1.8,6.7-.4.9-.9,1.1-.9,1.1l.9-9.6h0Z"/>
    </g>
    <g>
      <path class="st5" d="M251.8,44.1c.4-.1.4-.7,0-.8l-5.3-1.4c-1.1-.3-2-1.2-2.3-2.3l-2.1-8.7c-.1-.4-.7-.4-.8,0l-2,8.6c-.3,1.1-1.2,2-2.3,2.3l-5.3,1.4c-.4.1-.4.7,0,.8l5.6,1.9c1,.3,1.8,1.2,2.1,2.2l2,8c.1.4.7.4.8,0l2.1-8c.3-1,1.1-1.8,2.1-2.2l5.6-1.9h0Z"/>
      <path class="st5" d="M241.7,56.8c-.4,0-.7-.2-.7-.6l-2-8c-.3-.9-1-1.6-1.9-1.9l-5.6-1.9c-.3-.1-.5-.4-.5-.8,0-.3.2-.6.6-.7l5.3-1.4c1-.3,1.8-1.1,2.1-2.1l2-8.6c0-.4.4-.6.7-.6h0c.4,0,.7.2.7.6l2.1,8.7c.3,1,1.1,1.8,2.1,2l5.3,1.4c.3,0,.5.4.6.7,0,.3-.2.6-.5.7h0s-5.6,1.9-5.6,1.9c-.9.3-1.6,1-1.9,1.9l-2.1,8c0,.3-.4.6-.7.6h0ZM241.7,30.9h0c0,0,0,0,0,0l-2,8.6c-.3,1.3-1.3,2.3-2.6,2.6l-5.3,1.4s0,0,0,0c0,0,0,0,0,0l5.6,1.9c1.1.4,2,1.3,2.3,2.4h0s2,8,2,8c0,0,0,0,0,0h0c0,0,0,0,0,0l2.1-8.1c.3-1.1,1.2-2,2.3-2.4l5.6-1.9s0,0,0,0c0,0,0,0,0,0l-5.3-1.4c-1.2-.3-2.2-1.3-2.6-2.5h0s-2.1-8.7-2.1-8.7c0,0,0,0,0,0Z"/>
    </g>
  </g>
</svg>